<svg xmlns="http://www.w3.org/2000/svg" viewBox="0 0 15 18" xmlns:v="https://vecta.io/nano"><g transform="translate(-20 -358)"><path d="M140.395-20.219h375v667h-375v-667z" fill-rule="evenodd" fill="#fff"/><text transform="translate(183.817 346.781)" font-family="Maxis-Semibold" font-size="12">MOBILES</text><g transform="translate(20 358)"><defs><filter id="A" filterUnits="userSpaceOnUse" x="140.395" y="-20.219" width="15" height="18"><feColorMatrix values="1 0 0 0 0  0 1 0 0 0  0 0 1 0 0  0 0 0 1 0"/></filter></defs><mask maskUnits="userSpaceOnUse" x="140.395" y="-20.219" width="15" height="18" id="B"><g filter="url(#A)"><path d="M140.395-20.219h15v18h-15v-18z" fill-rule="evenodd" fill="#fff"/></g></mask><path d="M144.386-3.219h10.009v-2.309c-.001-2.786-1.799-5.222-4.377-5.931 1.522-.99 2.231-2.915 1.739-4.717s-2.069-3.043-3.862-3.043-3.369 1.242-3.862 3.043.217 3.726 1.74 4.717c-2.58.71-4.377 3.145-4.378 5.93v2.31" mask="url(#B)" fill="none" stroke="#115e67" stroke-width="2" stroke-linecap="round" stroke-linejoin="round"/><defs><filter id="C" filterUnits="userSpaceOnUse" x="0" y="0" width="15" height="18"><feColorMatrix values="1 0 0 0 0  0 1 0 0 0  0 0 1 0 0  0 0 0 1 0"/></filter></defs><mask maskUnits="userSpaceOnUse" x="0" y="0" width="15" height="18" id="D"><g filter="url(#C)"><path d="M0,0h15v18H0V0z" fill-rule="evenodd" fill="#fff"/></g></mask><path d="M14 18H3.991a1 1 0 1 1 0-2H13v-1.309c-.001-2.335-1.499-4.378-3.642-4.968a1 1 0 0 1-.28-1.803c1.153-.749 1.696-2.235 1.319-3.614C10.025 2.948 8.834 2 7.5 2s-2.526.948-2.898 2.307c-.376 1.378.168 2.864 1.321 3.615a1 1 0 0 1-.28 1.802c-2.144.59-3.642 2.632-3.643 4.966V17a1 1 0 1 1-2 0v-2.31c.001-2.648 1.413-5.03 3.578-6.26a5.38 5.38 0 0 1-.905-4.651C3.283 1.554 5.268 0 7.5 0s4.217 1.554 4.826 3.779a5.38 5.38 0 0 1-.903 4.651c2.165 1.229 3.576 3.612 3.577 6.261V17a1 1 0 0 1-1 1z" mask="url(#D)" fill="#115e67"/></g></g></svg>