<svg xmlns="http://www.w3.org/2000/svg" width="20" height="25" xmlns:v="https://vecta.io/nano"><path fill="#fff" d="M18.1 21.188l-.372.534c-.477.67-.882 1.172-1.214 1.505-.68.604-1.379.925-2.096.962-.47 0-1.03-.126-1.678-.38l-.248-.101c-.755-.321-1.435-.481-2.039-.481a4.3 4.3 0 0 0-1.246.17l-.763.267-.2.072c-.68.302-1.265.453-1.756.453-.68.038-1.378-.283-2.095-.962-.454-.416-1.02-1.114-1.7-2.096-.717-1.057-1.302-2.266-1.756-3.625-.528-1.51-.792-2.983-.792-4.418.037-1.586.377-2.964 1.02-4.135.528-.906 1.236-1.633 2.123-2.18s1.84-.822 2.86-.822c.605 0 1.435.208 2.493.623l.403.143c.501.17.858.254 1.07.254.234 0 .633-.105 1.196-.314l.697-.263 1.052-.33c.604-.15 1.17-.207 1.699-.17.582.033 1.137.148 1.664.347l.262.107c1.02.377 1.831 1.02 2.435 1.925-.529.34-1 .756-1.416 1.247-.793 1.02-1.19 2.133-1.19 3.341.038 1.095.322 2.058.85 2.889.416.604.944 1.133 1.586 1.586.34.227.623.378.85.453l-.057.057a14.48 14.48 0 0 1-1.642 3.341zM11.19 1.872C11.642 1.344 12.2.91 12.86.57s1.294-.51 1.898-.51c.075.68 0 1.36-.227 2.04s-.566 1.283-1.02 1.812-1 .954-1.642 1.275-1.284.462-1.926.424c-.075-.642.02-1.321.284-2.039.226-.642.547-1.208.962-1.699z"/></svg>