<svg xmlns="http://www.w3.org/2000/svg" viewBox="0 0 23 19" xmlns:v="https://vecta.io/nano"><g fill="#115e67"><path d="M21.776 3.234A.74.74 0 0 0 21.237 3H6.76v.002c-.008 0-.014.005-.022.005-.317-.577-.773-1.068-1.333-1.424A3.79 3.79 0 0 0 3.423 1H1.77c-.425 0-.77.34-.77.76s.345.758.77.758h1.652a2.22 2.22 0 0 1 1.141.349c.352.223.638.535.83.903.216.375.282.774.407 1.35l1.48 6.36.124.447a2.95 2.95 0 0 0 .22.49 2.87 2.87 0 0 0 1.654 1.393 3.96 3.96 0 0 0 1.013.19h9.939c.425 0 .77-.339.77-.759s-.345-.759-.771-.759h-9.856a1.78 1.78 0 0 1-1.07-.367c-.135-.113-.246-.252-.326-.407a1.86 1.86 0 0 1-.11-.256l-.093-.337L7.327 4.8l-.041-.192h13.015l-.539 2.556-.185.884-.093.44a1.81 1.81 0 0 1-.087.27c-.133.315-.421.525-.747.545-.148.02-.489.02-.765.02h-.869l-1.719.023-3.441.048c-.42.006-.756.371-.75.815s.351.797.771.79l3.424-.05 1.715-.022h.856c.297-.012.53.009.95-.035a2.4 2.4 0 0 0 1.14-.445c.343-.257.616-.605.796-1.007.08-.188.145-.385.19-.585l.094-.445.191-.885.747-3.55c.013-.057.02-.116.02-.174-.001-.213-.081-.417-.224-.567z" stroke="#115e67" stroke-width=".5"/><circle cx="9.5" cy="17.5" r="1.5"/><circle cx="18.5" cy="17.5" r="1.5"/></g><path d="M8.5 5.5H19l-.675 3H9.203l-.703-3z" fill-rule="evenodd" fill="#40c706"/></svg>