<svg xmlns="http://www.w3.org/2000/svg" width="28" height="22" xmlns:v="https://vecta.io/nano"><path fill="#fff" d="M11.255 0c-1.93 0-3.417 1.68-3.418 4.762 0 2.013 3.046 7.175 5.747 11.695 0-11.704-.289-12.971-2.329-16.457zm5.704 0c-2.08 3.426-2.328 4.753-2.328 16.457 2.7-4.52 5.746-9.682 5.746-11.695C20.377 1.68 18.89 0 16.96 0zM4.601 3.802c-2.832 1.977-1.9 6.655-.471 8.183.944.988 4.606 2.768 8.076 5.126L4.601 3.802zm19.012 0l-7.605 13.309c3.47-2.358 7.133-4.138 8.077-5.126 1.429-1.528 2.36-6.206-.472-8.183zM.8 11.407c.045 5.268 3.261 6.654 5.434 6.654h5.433L.799 11.407zm26.617 0L16.55 18.061h5.432c2.173 0 5.389-1.386 5.435-6.654zM3.762 19.012c.303 1.572.989 2.852 2.965 2.852s3.887-1.14 4.939-2.852H3.762zm12.787 0c1.051 1.711 2.962 2.852 4.938 2.852s2.662-1.28 2.965-2.852H16.55z"/></svg>