<svg xmlns="http://www.w3.org/2000/svg" width="24" height="24" xmlns:v="https://vecta.io/nano"><path fill="#fff" d="M7.129.643h9.492c1.16 0 2.241.29 3.243.87s1.793 1.37 2.373 2.373.87 2.083.87 3.243v9.492c0 1.16-.29 2.241-.87 3.243s-1.37 1.793-2.373 2.373-2.083.87-3.243.87H7.13c-1.16 0-2.241-.29-3.243-.87s-1.793-1.37-2.373-2.373-.87-2.083-.87-3.243V7.13c0-1.16.29-2.241.87-3.243s1.37-1.793 2.373-2.373S5.97.644 7.13.644zm-.211 2.214c-1.125 0-2.083.396-2.874 1.187S2.857 5.793 2.857 6.918v9.914c0 1.125.396 2.083 1.187 2.874s1.749 1.187 2.874 1.187h9.914c1.125 0 2.083-.396 2.874-1.187s1.187-1.749 1.187-2.874V6.918c0-1.125-.396-2.083-1.187-2.874s-1.749-1.187-2.874-1.187H6.918zm4.957 3.375c.738 0 1.45.15 2.136.449a5.87 5.87 0 0 1 1.82 1.239c.526.527.94 1.134 1.238 1.82s.449 1.397.449 2.135c0 1.02-.255 1.96-.765 2.821a5.76 5.76 0 0 1-2.057 2.057c-.861.51-1.801.765-2.821.765s-1.96-.255-2.821-.765a5.76 5.76 0 0 1-2.057-2.057c-.51-.861-.765-1.801-.765-2.821 0-.738.15-1.45.449-2.136a5.87 5.87 0 0 1 1.239-1.82c.527-.526 1.134-.94 1.82-1.238s1.397-.449 2.135-.449zm0 2.268c-.95 0-1.749.325-2.4.976s-.975 1.45-.975 2.399.325 1.749.976 2.4 1.45.975 2.399.975 1.749-.325 2.4-.976.975-1.45.975-2.399-.325-1.749-.976-2.4-1.45-.975-2.399-.975zm5.906-3.955c.387 0 .721.14 1.002.422a1.37 1.37 0 0 1 .422 1.002c0 .386-.14.72-.422 1.002a1.37 1.37 0 0 1-1.002.422 1.37 1.37 0 0 1-1.002-.422 1.37 1.37 0 0 1-.422-1.002 1.37 1.37 0 0 1 .422-1.002 1.37 1.37 0 0 1 1.002-.422z"/></svg>