<svg xmlns="http://www.w3.org/2000/svg" width="21" height="21" xmlns:v="https://vecta.io/nano"><path fill="#fff" d="M20.838 21h-4.483v-7.594c0-.562-.272-1.063-.817-1.503s-1.116-.659-1.714-.659-1.08.211-1.45.633-.554.932-.554 1.53V21H7.338V7.5h4.482v2.268c.352-.598.932-1.081 1.74-1.45s1.547-.554 2.215-.554a4.83 4.83 0 0 1 3.586 1.503c.985 1.002 1.477 2.188 1.477 3.56V21zM5.07 21H.588V7.5H5.07V21zM2.855.75c.598 0 1.117.22 1.556.66s.66.966.66 1.581-.22 1.143-.66 1.582-.967.66-1.582.66-1.142-.22-1.582-.66-.66-.967-.66-1.582.22-1.142.66-1.582S2.223.75 2.855.75z"/></svg>