<svg xmlns="http://www.w3.org/2000/svg" viewBox="0 0 15.8 18.7" fill="#115e67" stroke="#115e67" stroke-width=".4" xmlns:v="https://vecta.io/nano"><path d="M7.9 12.1h-.2l-3.8-1.7c-.2-.1-.3-.3-.3-.4V6.1c0-.2.1-.4.3-.4l3.8-1.6h.4l3.8 1.6c.2.1.3.2.3.4V10c0 .2-.1.4-.3.4l-3.8 1.7h-.2 0zM4.6 9.7l3.3 1.4 3.3-1.5V6.5L7.9 5.1 4.6 6.5v3.2h0z"/><path d="M7.4 11.6V8.1L4 6.7c-.2-.1-.3-.3-.4-.4 0-.2.1-.4.2-.5.2-.1.4-.1.5 0l3.5 1.5 3.5-1.6c.2-.1.5 0 .6.2v.2c0 .2-.1.4-.3.4L8.4 8.1v3.5a.47.47 0 0 1-.5.5.47.47 0 0 1-.5-.5zm-2.8 5c-.6-.5-1.8-2.1-2.8-3.8A10.29 10.29 0 0 1 .4 7.1c.2-2.1 1.3-4 2.9-5.2A7.67 7.67 0 0 1 9.1.4c2 .3 3.9 1.5 5 3.2s1.5 3.9 1 5.9c-.5 1.9-1.3 3.7-2.6 5.2-1.2 1.5-2.3 2.6-4 3.4-.2.1-.9.3-1.2-.1-.2-.2-.3-.6.2-1 1.5-.9 2.7-1.8 3.8-3.2s1.9-2.9 2.2-4.6c.3-1.6.1-3.4-.8-4.8-.7-1.3-2.2-2.2-3.9-2.5-1.6-.3-3.3.1-4.6 1.2-1.3 1-2.2 2.5-2.4 4.1-.1 1.8.4 3.4 1.3 4.9 1 1.6 1.4 2.3 2.5 3.6h0c.4.5.2.8 0 1s-.5.3-1-.1z"/></svg>