<svg xmlns="http://www.w3.org/2000/svg" width="24" height="20" xmlns:v="https://vecta.io/nano"><path fill="#fff" d="M23.588 3.125a9.26 9.26 0 0 1-2.426 2.531l.053.633c0 2.18-.527 4.307-1.582 6.38-1.125 2.18-2.69 3.903-4.694 5.169C12.76 19.279 10.264 20 7.451 20a13.41 13.41 0 0 1-7.383-2.162l1.16.053c2.25 0 4.237-.686 5.96-2.057a4.81 4.81 0 0 1-2.77-.976c-.825-.615-1.397-1.415-1.713-2.399.316.07.615.105.897.105.457 0 .878-.052 1.265-.158-1.09-.246-2.004-.808-2.742-1.687a4.59 4.59 0 0 1-1.1-2.794l-.007-.318c.703.387 1.423.58 2.162.58A4.72 4.72 0 0 1 1.65 6.5c-.386-.703-.58-1.485-.58-2.347a4.76 4.76 0 0 1 .633-2.4c1.195 1.477 2.663 2.664 4.403 3.56s3.595 1.398 5.564 1.503c-.106-.386-.158-.755-.158-1.107 0-1.336.474-2.479 1.424-3.428S15.01.857 16.311.857c1.441 0 2.636.51 3.585 1.53a9.52 9.52 0 0 0 3.06-1.16c-.388 1.16-1.09 2.056-2.11 2.689a9.88 9.88 0 0 0 2.742-.791z"/></svg>