<svg xmlns="http://www.w3.org/2000/svg" width="26" height="18" xmlns:v="https://vecta.io/nano"><path fill="#fff" d="M10.068 12.5l6.504-3.75L10.068 5v7.5zm14.473-9.785c.156.586.273 1.367.352 2.344l.117 2.636.058 1.055c0 2.695-.175 4.707-.527 6.035-.312 1.133-1.035 1.856-2.168 2.168-.547.146-1.536.258-2.968.336l-.313.016-4.512.117-1.992.058-1.37-.004c-4.403-.029-7.208-.203-8.415-.523C1.67 16.641.947 15.918.635 14.785.479 14.2.36 13.418.283 12.441L.166 9.805.107 8.75c0-2.695.176-4.707.528-6.035C.947 1.582 1.67.859 2.803.547 3.35.4 4.339.289 5.77.21l.314-.016 4.512-.116L12.588.02l1.369.004c4.403.029 7.209.203 8.416.523 1.133.312 1.856 1.035 2.168 2.168z"/></svg>